<svg xmlns="http://www.w3.org/2000/svg" class="svg-icon" style="width:1em;height:1em;vertical-align:middle;fill:currentColor;overflow:hidden" viewBox="0 0 1024 1024"><path d="M808.421 1024H215.58c-74.267 0-134.737-60.47-134.737-134.737V458.105c0-74.267 60.47-134.737 134.737-134.737h26.947v-53.894C242.526 120.67 363.196 0 512 0c148.803 0 269.474 120.67 269.474 269.474v53.894h26.947c74.267 0 134.737 60.47 134.737 134.737v431.158c0 74.267-60.47 134.737-134.737 134.737ZM727.58 269.474c0-119.054-96.526-215.58-215.579-215.58-119.053 0-215.579 96.526-215.579 215.58v53.894H727.58v-53.894Zm161.684 188.631c0-44.57-36.271-80.842-80.842-80.842H215.58c-44.571 0-80.842 36.271-80.842 80.842v431.158c0 44.571 36.271 80.842 80.842 80.842H808.42c44.571 0 80.842-36.27 80.842-80.842V458.105ZM512 754.526v53.895h53.895v53.895H512v53.895h-53.895V744.61c-62.68-22.259-107.79-81.49-107.79-151.768 0-89.303 72.381-161.684 161.685-161.684s161.684 72.38 161.684 161.684S601.304 754.526 512 754.526Zm0-269.473c-59.554 0-107.79 48.235-107.79 107.79 0 59.553 48.236 107.789 107.79 107.789 59.554 0 107.79-48.236 107.79-107.79 0-59.554-48.236-107.79-107.79-107.79Z"/></svg>