<svg xmlns="http://www.w3.org/2000/svg" xml:space="preserve" width="800" height="800" viewBox="0 0 491.52 491.52"><path d="M0 51.2v163.84h491.52V51.2H0zm471.04 143.36H20.48V71.68h450.56v122.88z"/><path d="m132.755 121.51-10.24-17.74-20.115 11.613V92.16H81.92v23.221L61.81 103.77l-10.24 17.74 20.109 11.61-20.109 11.61 10.24 17.74 20.11-11.611v23.221h20.48v-23.223l20.115 11.613 10.24-17.74-20.109-11.61zM235.155 121.51l-10.24-17.74-20.115 11.613V92.16h-20.48v23.221l-20.11-11.611-10.24 17.74 20.109 11.61-20.109 11.61 10.24 17.74 20.11-11.611v23.221h20.48v-23.223l20.115 11.613 10.24-17.74-20.109-11.61zM337.555 121.51l-10.24-17.74-20.115 11.613V92.16h-20.48v23.221l-20.11-11.611-10.24 17.74 20.109 11.61-20.109 11.61 10.24 17.74 20.11-11.611v23.221h20.48v-23.223l20.115 11.613 10.24-17.74-20.109-11.61zM439.955 121.51l-10.24-17.74-20.115 11.613V92.16h-20.48v23.221l-20.11-11.611-10.24 17.74 20.109 11.61-20.109 11.61 10.24 17.74 20.11-11.611v23.221h20.48v-23.223l20.115 11.613 10.24-17.74-20.109-11.61zM403.6 317.44H209.663C196.971 281.704 162.912 256 122.88 256c-50.815 0-92.16 41.34-92.16 92.16 0 50.82 41.345 92.16 92.16 92.16 36.093 0 67.32-20.905 82.436-51.2h77.164l29.84 29.84 35.84-35.84 16.24 16.24h39.2l40.96-40.96-40.96-40.96zm-280.72 102.4c-39.525 0-71.68-32.16-71.68-71.68 0-39.52 32.155-71.68 71.68-71.68s71.68 32.16 71.68 71.68c0 39.52-32.155 71.68-71.68 71.68zm272.24-40.96h-22.24l-24.72-24.72L312.32 390l-21.36-21.36h-78.293c1.505-6.598 2.373-13.433 2.373-20.48 0-3.464-.229-6.874-.604-10.24H395.12l20.48 20.48-20.48 20.48z"/><path d="M92.16 317.44c-16.94 0-30.72 13.78-30.72 30.72 0 16.94 13.78 30.72 30.72 30.72s30.72-13.78 30.72-30.72c0-16.94-13.78-30.72-30.72-30.72zm0 40.96c-5.645 0-10.24-4.59-10.24-10.24s4.595-10.24 10.24-10.24c5.645 0 10.24 4.59 10.24 10.24s-4.595 10.24-10.24 10.24z"/></svg>