<svg xmlns="http://www.w3.org/2000/svg" aria-hidden="true" style="position:absolute;width:0;height:0;overflow:hidden"><defs><symbol id="icon-email-open-sketched-envelope-svgrepo-com" viewBox="0 0 32 32"><path d="M30.484 11.845c-.142-.215-.45-.308-.696-.243-.434-1.584-2.668-3.339-3.541-4.187C23.804 5.039 21.109 2.81 18.217 1 11.533-3.185 5.969 6.931 1.079 9.978c-.409.255-.301.705.001.897l.024.312c0 .026.001.051.006.078.489 6.331-1.326 13.203.331 19.334.135.5.767.575 1.095.306.037.019.07.042.115.052 4.315.945 8.751.988 13.15.961 4.423-.026 9.079.276 13.471-.135.349-.033.58-.33.619-.629.055.057.104.119.164.171.138.119.376.085.424-.112.331-1.356-.128-2.848-.174-4.245-.061-1.864.132-3.746.302-5.6.24-2.616 1.44-7.166-.124-9.523zm-2.211.224c-.13.03-.26.075-.39.128a8.376 8.376 0 0 1-.536-.428c-.573-.51-1.121-1.046-1.694-1.555a.319.319 0 0 0-.444-.002c-.072-.597-.144-1.196-.23-1.794a80.434 80.434 0 0 1 3.293 3.651zm-1.2.575c-.539.364-1.042.819-1.437 1.187-.002-.901-.208-1.863-.314-2.692l-.044-.362c.482.537.986 1.054 1.499 1.562.095.095.194.199.296.305zm-3.058-1.505c.067 1.224-.02 2.634.36 3.796.009.026.024.045.035.068-1.902 1.901-3.615 4.007-5.675 5.738-.287-.036-.512.19-.557.454-.06.047-.116.097-.176.143-2.963 2.251-6.538-1.356-8.749-3.244-.412-.352-.809-.718-1.21-1.081-.04-2.599-1.343-9.695 1.555-10.049 4.832-.59 9.414.013 14.203.521.032 1.218.146 2.441.213 3.654zM17.46 2.295c1.717 1.019 3.286 2.198 4.755 3.483a32.503 32.503 0 0 0-2.375-.326c-2.019-1.31-4.173-2.343-6.145-3.727 1.219-.311 2.471-.198 3.765.57zm-4.486-.337a31.722 31.722 0 0 0 4.378 3.304 55.477 55.477 0 0 0-2.073-.06c-.537-.381-1.221-.676-1.722-1.024-.682-.473-1.332-.994-1.985-1.509.463-.286.93-.527 1.401-.711zm-1.843.998a65.274 65.274 0 0 0 2.263 1.938c.107.087.22.183.334.279a48.867 48.867 0 0 0-1.531-.022c-.278-.135-.614-.225-.825-.328a7.233 7.233 0 0 1-1.482-.929c.41-.34.824-.654 1.241-.938zM9.469 4.251c.392.368.834.676 1.295.951-1.071.081-2.075.275-2.717.706-1.252.841-1.655 2.535-1.681 4.419a6.413 6.413 0 0 1-1.414-1.314c-.23-.297-.702.085-.512.395.309.504.733.926 1.178 1.311.2.173.473.444.762.534.022.493.062.992.116 1.485-.652-.2-1.32-.777-1.791-1.145-.586-.458-1.131-.965-1.671-1.479C5.128 8.666 7.255 6.172 9.469 4.25zm-7.246 6.871-.093-.45a8.63 8.63 0 0 0 .516-.302c.706.727 1.426 1.442 2.2 2.096.467.394 1.083.932 1.731.949.121.937.273 1.835.4 2.612-1.65-1.569-3.219-3.216-4.754-4.906zm.407 17.729c-.241-5.099.53-10.37-.041-15.43 1.526 1.903 3.382 3.625 5.112 5.238 1.13 1.054 2.45 2.271 3.887 3.252-1.589.39-3.132 1.927-4.346 2.928A128.378 128.378 0 0 0 2.63 28.85zm14.179 1.518c-4.603.082-9.168-.067-13.751-.479 1.312-.932 2.548-1.997 3.806-2.984 1.752-1.373 3.642-2.543 5.403-3.87a.698.698 0 0 0 .286-.516c1.015.585 2.078 1.019 3.168 1.169 1.264.174 2.478-.465 3.564-1.325a103.864 103.864 0 0 1 4.671 3.608c1.002.815 4.172 2.823 4.282 4.21a.672.672 0 0 0 .036.165c-3.722-.51-7.763-.043-11.464.022zm12.196-8.188c-.142 1.57-.547 4.218-.223 6.372-1.75-2.228-6.317-5.452-8.605-6.96.614-.574 1.172-1.17 1.652-1.653 1.671-1.68 4.026-5.307 6.548-6.246.022.009.043.021.066.029.176.062.349-.035.442-.18.129-.028.257-.058.386-.07.041-.004.08-.017.119-.028.035.824.141 1.654.125 2.48-.042 2.089-.321 4.178-.509 6.257z"/><path d="M20.284 12.762c-1.927-.668-4.831-.076-6.852-.044-.338.005-4.637-.193-4.133.756.514.969 4.172.48 5.083.494 1.758.028 4.224.522 5.902-.059a.6.6 0 0 0 0-1.147zM15.19 9.848c-.436-.55-1.412-.39-2.026-.394-1.111-.008-2.283-.063-3.387.068a.444.444 0 0 0 0 .888c.951.113 1.931.064 2.888.127.758.05 1.552.275 2.301.159.42-.065.431-.587.224-.848z"/></symbol><symbol id="icon-password-svgrepo-com" viewBox="0 0 32 32"><path d="M0 3.333V14h32V3.333H0zm30.667 9.334H1.334v-8h29.333v8z"/><path d="m8.643 7.911-.667-1.155-1.31.756V6H5.333v1.512l-1.309-.756-.667 1.155 1.309.756-1.309.756.667 1.155 1.309-.756v1.512h1.333V9.822l1.31.756.667-1.155-1.309-.756zM15.31 7.911l-.667-1.155-1.31.756V6H12v1.512l-1.309-.756-.667 1.155 1.309.756-1.309.756.667 1.155L12 9.822v1.512h1.333V9.822l1.31.756.667-1.155-1.309-.756zM21.976 7.911l-.667-1.155-1.31.756V6h-1.333v1.512l-1.309-.756-.667 1.155 1.309.756-1.309.756.667 1.155 1.309-.756v1.512h1.333V9.822l1.31.756.667-1.155-1.309-.756zM28.643 7.911l-.667-1.155-1.31.756V6h-1.333v1.512l-1.309-.756-.667 1.155 1.309.756-1.309.756.667 1.155 1.309-.756v1.512h1.333V9.822l1.31.756.667-1.155-1.309-.756zM26.276 20.667H13.65c-.826-2.327-3.044-4-5.65-4-3.308 0-6 2.691-6 6s2.692 6 6 6a6.001 6.001 0 0 0 5.367-3.333h5.024l1.943 1.943 2.333-2.333 1.057 1.057h2.552l2.667-2.667-2.667-2.667zM8 27.333c-2.573 0-4.667-2.094-4.667-4.667S5.426 17.999 8 17.999s4.667 2.094 4.667 4.667A4.672 4.672 0 0 1 8 27.333zm17.724-2.666h-1.448l-1.609-1.609-2.333 2.333L18.943 24h-5.097c.098-.43.155-.875.155-1.333a6.11 6.11 0 0 0-.039-.667h11.763l1.333 1.333-1.333 1.333z"/><path d="M6 20.667c-1.103 0-2 .897-2 2s.897 2 2 2 2-.897 2-2-.897-2-2-2zm0 2.666a.668.668 0 0 1 0-1.334.668.668 0 0 1 0 1.334z"/></symbol><symbol id="icon-user-svgrepo-com" viewBox="0 0 32 32"><path d="M29.333 32h-2.667v-6.667c0-5.2-4.133-9.333-9.333-9.333h-2.667a9.275 9.275 0 0 0-9.333 9.333V32H2.666v-6.667c0-5.2 3.333-9.733 8-11.333-1.6-1.467-2.667-3.6-2.667-6 0-4.4 3.6-8 8-8s8 3.6 8 8c0 2.4-1.067 4.533-2.667 6 4.667 1.6 8 6.133 8 11.333V32zM16 13.333c2.933 0 5.333-2.4 5.333-5.333S18.933 2.667 16 2.667 10.667 5.067 10.667 8s2.4 5.333 5.333 5.333zM22.667 32H20v-6.667h2.667V32zM12 32H9.333v-6.667H12V32z"/></symbol></defs></svg>