<svg aria-hidden="true" style="position: absolute; width: 0; height: 0; overflow: hidden;" version="1.1" xmlns="http://www.w3.org/2000/svg" xmlns:xlink="http://www.w3.org/1999/xlink">
<defs>
<symbol id="icon-email-open-sketched-envelope-svgrepo-com" viewBox="0 0 32 32">
<path d="M30.484 11.845c-0.142-0.215-0.45-0.308-0.696-0.243-0.434-1.584-2.668-3.339-3.541-4.187-2.443-2.376-5.138-4.605-8.030-6.415-6.684-4.185-12.248 5.931-17.138 8.978-0.409 0.255-0.301 0.705 0.001 0.897 0.008 0.104 0.015 0.208 0.024 0.312 0 0.026 0.001 0.051 0.006 0.078 0.489 6.331-1.326 13.203 0.331 19.334 0.135 0.5 0.767 0.575 1.095 0.306 0.037 0.019 0.070 0.042 0.115 0.052 4.315 0.945 8.751 0.988 13.15 0.961 4.423-0.026 9.079 0.276 13.471-0.135 0.349-0.033 0.58-0.33 0.619-0.629 0.055 0.057 0.104 0.119 0.164 0.171 0.138 0.119 0.376 0.085 0.424-0.112 0.331-1.356-0.128-2.848-0.174-4.245-0.061-1.864 0.132-3.746 0.302-5.6 0.24-2.616 1.44-7.166-0.124-9.523zM28.273 12.069c-0.13 0.030-0.26 0.075-0.39 0.128-0.188-0.142-0.373-0.282-0.536-0.428-0.573-0.51-1.121-1.046-1.694-1.555-0.153-0.136-0.331-0.105-0.444-0.002-0.072-0.597-0.144-1.196-0.23-1.794 1.138 1.175 2.225 2.404 3.293 3.651zM27.073 12.644c-0.539 0.364-1.042 0.819-1.437 1.187-0.002-0.901-0.208-1.863-0.314-2.692-0.015-0.12-0.029-0.241-0.044-0.362 0.482 0.537 0.986 1.054 1.499 1.562 0.095 0.095 0.194 0.199 0.296 0.305zM24.015 11.139c0.067 1.224-0.020 2.634 0.36 3.796 0.009 0.026 0.024 0.045 0.035 0.068-1.902 1.901-3.615 4.007-5.675 5.738-0.287-0.036-0.512 0.19-0.557 0.454-0.060 0.047-0.116 0.097-0.176 0.143-2.963 2.251-6.538-1.356-8.749-3.244-0.412-0.352-0.809-0.718-1.21-1.081-0.040-2.599-1.343-9.695 1.555-10.049 4.832-0.59 9.414 0.013 14.203 0.521 0.032 1.218 0.146 2.441 0.213 3.654zM17.46 2.295c1.717 1.019 3.286 2.198 4.755 3.483-0.785-0.142-1.579-0.242-2.375-0.326-2.019-1.31-4.173-2.343-6.145-3.727 1.219-0.311 2.471-0.198 3.765 0.57zM12.974 1.958c1.333 1.211 2.828 2.326 4.378 3.304-0.693-0.032-1.385-0.054-2.073-0.060-0.537-0.381-1.221-0.676-1.722-1.024-0.682-0.473-1.332-0.994-1.985-1.509 0.463-0.286 0.93-0.527 1.401-0.711zM11.131 2.956c0.741 0.661 1.492 1.311 2.263 1.938 0.107 0.087 0.22 0.183 0.334 0.279-0.472-0.012-0.991-0.025-1.531-0.022-0.278-0.135-0.614-0.225-0.825-0.328-0.523-0.254-1.034-0.555-1.482-0.929 0.41-0.34 0.824-0.654 1.241-0.938zM9.469 4.251c0.392 0.368 0.834 0.676 1.295 0.951-1.071 0.081-2.075 0.275-2.717 0.706-1.252 0.841-1.655 2.535-1.681 4.419-0.125-0.084-0.247-0.174-0.364-0.268-0.382-0.308-0.749-0.657-1.050-1.046-0.23-0.297-0.702 0.085-0.512 0.395 0.309 0.504 0.733 0.926 1.178 1.311 0.2 0.173 0.473 0.444 0.762 0.534 0.022 0.493 0.062 0.992 0.116 1.485-0.652-0.2-1.32-0.777-1.791-1.145-0.586-0.458-1.131-0.965-1.671-1.479 2.094-1.448 4.221-3.942 6.435-5.864zM2.223 11.122c-0.031-0.15-0.061-0.3-0.093-0.45 0.172-0.092 0.344-0.194 0.516-0.302 0.706 0.727 1.426 1.442 2.2 2.096 0.467 0.394 1.083 0.932 1.731 0.949 0.121 0.937 0.273 1.835 0.4 2.612-1.65-1.569-3.219-3.216-4.754-4.906zM2.63 28.851c-0.241-5.099 0.53-10.37-0.041-15.43 1.526 1.903 3.382 3.625 5.112 5.238 1.13 1.054 2.45 2.271 3.887 3.252-1.589 0.39-3.132 1.927-4.346 2.928-1.565 1.29-3.104 2.642-4.612 4.011zM16.809 30.369c-4.603 0.082-9.168-0.067-13.751-0.479 1.312-0.932 2.548-1.997 3.806-2.984 1.752-1.373 3.642-2.543 5.403-3.87 0.189-0.142 0.272-0.331 0.286-0.516 1.015 0.585 2.078 1.019 3.168 1.169 1.264 0.174 2.478-0.465 3.564-1.325 1.595 1.152 3.145 2.368 4.671 3.608 1.002 0.815 4.172 2.823 4.282 4.21 0.005 0.059 0.018 0.113 0.036 0.165-3.722-0.51-7.763-0.043-11.464 0.022zM29.005 22.181c-0.142 1.57-0.547 4.218-0.223 6.372-1.75-2.228-6.317-5.452-8.605-6.96 0.614-0.574 1.172-1.17 1.652-1.653 1.671-1.68 4.026-5.307 6.548-6.246 0.022 0.009 0.043 0.021 0.066 0.029 0.176 0.062 0.349-0.035 0.442-0.18 0.129-0.028 0.257-0.058 0.386-0.070 0.041-0.004 0.080-0.017 0.119-0.028 0.035 0.824 0.141 1.654 0.125 2.48-0.042 2.089-0.321 4.178-0.509 6.257z"></path>
<path d="M20.284 12.762c-1.927-0.668-4.831-0.076-6.852-0.044-0.338 0.005-4.637-0.193-4.133 0.756 0.514 0.969 4.172 0.48 5.083 0.494 1.758 0.028 4.224 0.522 5.902-0.059 0.566-0.196 0.566-0.951 0-1.147z"></path>
<path d="M15.19 9.848c-0.436-0.55-1.412-0.39-2.026-0.394-1.111-0.008-2.283-0.063-3.387 0.068-0.571 0.068-0.571 0.82 0 0.888 0.951 0.113 1.931 0.064 2.888 0.127 0.758 0.050 1.552 0.275 2.301 0.159 0.42-0.065 0.431-0.587 0.224-0.848z"></path>
</symbol>
<symbol id="icon-password-svgrepo-com" viewBox="0 0 32 32">
<path d="M0 3.333v10.667h32v-10.667h-32zM30.667 12.667h-29.333v-8h29.333v8z"></path>
<path d="M8.643 7.911l-0.667-1.155-1.31 0.756v-1.512h-1.333v1.512l-1.309-0.756-0.667 1.155 1.309 0.756-1.309 0.756 0.667 1.155 1.309-0.756v1.512h1.333v-1.512l1.31 0.756 0.667-1.155-1.309-0.756z"></path>
<path d="M15.31 7.911l-0.667-1.155-1.31 0.756v-1.512h-1.333v1.512l-1.309-0.756-0.667 1.155 1.309 0.756-1.309 0.756 0.667 1.155 1.309-0.756v1.512h1.333v-1.512l1.31 0.756 0.667-1.155-1.309-0.756z"></path>
<path d="M21.976 7.911l-0.667-1.155-1.31 0.756v-1.512h-1.333v1.512l-1.309-0.756-0.667 1.155 1.309 0.756-1.309 0.756 0.667 1.155 1.309-0.756v1.512h1.333v-1.512l1.31 0.756 0.667-1.155-1.309-0.756z"></path>
<path d="M28.643 7.911l-0.667-1.155-1.31 0.756v-1.512h-1.333v1.512l-1.309-0.756-0.667 1.155 1.309 0.756-1.309 0.756 0.667 1.155 1.309-0.756v1.512h1.333v-1.512l1.31 0.756 0.667-1.155-1.309-0.756z"></path>
<path d="M26.276 20.667h-12.626c-0.826-2.327-3.044-4-5.65-4-3.308 0-6 2.691-6 6s2.692 6 6 6c2.35 0 4.383-1.361 5.367-3.333h5.024l1.943 1.943 2.333-2.333 1.057 1.057h2.552l2.667-2.667-2.667-2.667zM8 27.333c-2.573 0-4.667-2.094-4.667-4.667s2.093-4.667 4.667-4.667 4.667 2.094 4.667 4.667c0 2.573-2.093 4.667-4.667 4.667zM25.724 24.667h-1.448l-1.609-1.609-2.333 2.333-1.391-1.391h-5.097c0.098-0.43 0.155-0.875 0.155-1.333 0-0.226-0.015-0.448-0.039-0.667h11.763l1.333 1.333-1.333 1.333z"></path>
<path d="M6 20.667c-1.103 0-2 0.897-2 2s0.897 2 2 2 2-0.897 2-2c0-1.103-0.897-2-2-2zM6 23.333c-0.367 0-0.667-0.299-0.667-0.667s0.299-0.667 0.667-0.667c0.367 0 0.667 0.299 0.667 0.667s-0.299 0.667-0.667 0.667z"></path>
</symbol>
<symbol id="icon-user-svgrepo-com" viewBox="0 0 32 32">
<path d="M29.333 32h-2.667v-6.667c0-5.2-4.133-9.333-9.333-9.333h-2.667c-5.2 0-9.333 4.133-9.333 9.333v6.667h-2.667v-6.667c0-5.2 3.333-9.733 8-11.333-1.6-1.467-2.667-3.6-2.667-6 0-4.4 3.6-8 8-8s8 3.6 8 8c0 2.4-1.067 4.533-2.667 6 4.667 1.6 8 6.133 8 11.333v6.667zM16 13.333c2.933 0 5.333-2.4 5.333-5.333s-2.4-5.333-5.333-5.333-5.333 2.4-5.333 5.333 2.4 5.333 5.333 5.333zM22.667 32h-2.667v-6.667h2.667v6.667zM12 32h-2.667v-6.667h2.667v6.667z"></path>
</symbol>
<symbol id="icon-envelop" viewBox="0 0 32 32">
<path d="M29 4h-26c-1.65 0-3 1.35-3 3v20c0 1.65 1.35 3 3 3h26c1.65 0 3-1.35 3-3v-20c0-1.65-1.35-3-3-3zM12.461 17.199l-8.461 6.59v-15.676l8.461 9.086zM5.512 8h20.976l-10.488 7.875-10.488-7.875zM12.79 17.553l3.21 3.447 3.21-3.447 6.58 8.447h-19.579l6.58-8.447zM19.539 17.199l8.461-9.086v15.676l-8.461-6.59z"></path>
</symbol>
<symbol id="icon-user" viewBox="0 0 32 32">
<path d="M18 22.082v-1.649c2.203-1.241 4-4.337 4-7.432 0-4.971 0-9-6-9s-6 4.029-6 9c0 3.096 1.797 6.191 4 7.432v1.649c-6.784 0.555-12 3.888-12 7.918h28c0-4.030-5.216-7.364-12-7.918z"></path>
</symbol>
<symbol id="icon-lock" viewBox="0 0 32 32">
<path d="M18.5 14h-0.5v-6c0-3.308-2.692-6-6-6h-4c-3.308 0-6 2.692-6 6v6h-0.5c-0.825 0-1.5 0.675-1.5 1.5v15c0 0.825 0.675 1.5 1.5 1.5h17c0.825 0 1.5-0.675 1.5-1.5v-15c0-0.825-0.675-1.5-1.5-1.5zM6 8c0-1.103 0.897-2 2-2h4c1.103 0 2 0.897 2 2v6h-8v-6z"></path>
</symbol>
</defs>
</svg>
