<svg xmlns="http://www.w3.org/2000/svg" xml:space="preserve" style="enable-background:new 0 0 40 40" viewBox="0 0 40 40"><path d="M4.511 38.5c.263-6.11 5.315-11 11.489-11h8c6.174 0 11.227 4.89 11.489 11H4.511z" style="fill:#b6dcfe"/><path d="M24 28c5.729 0 10.448 4.401 10.955 10H5.045C5.552 32.401 10.271 28 16 28h8m0-1h-8C9.373 27 4 32.373 4 39h32c0-6.627-5.373-12-12-12z" style="fill:#4788c7"/><path d="M20 30.5c-3.219 0-4.309-2.101-4.5-2.536V22.5h9v5.464c-.188.43-1.277 2.536-4.5 2.536z" style="fill:#fff"/><path d="M24 23v4.855c-.241.488-1.262 2.145-4 2.145-2.73 0-3.756-1.657-4-2.147V23h8m1-1H15v6.062S16.066 31 20 31s5-2.938 5-2.938V22z" style="fill:#4788c7"/><path d="M27.143 19.214c-1.3 0-2.356-1.058-2.356-2.357s1.057-2.357 2.356-2.357c1.963 0 2.357.538 2.357 1.405 0 1.414-1.165 3.309-2.357 3.309zm-14.286 0c-1.192 0-2.357-1.895-2.357-3.31 0-.867.395-1.405 2.357-1.405a2.358 2.358 0 0 1 0 4.715z" style="fill:#dff0fe"/><path d="M27.143 15C29 15 29 15.481 29 15.905c0 1.234-1.041 2.81-1.857 2.81a1.859 1.859 0 0 1-1.857-1.857A1.86 1.86 0 0 1 27.143 15m-14.286 0c1.024 0 1.857.833 1.857 1.857a1.859 1.859 0 0 1-1.857 1.857c-.816 0-1.857-1.575-1.857-2.81 0-.423 0-.904 1.857-.904m14.286-1a2.857 2.857 0 1 0 0 5.714c1.578 0 2.857-2.232 2.857-3.81C30 14.327 28.721 14 27.143 14zm-14.286 0C11.279 14 10 14.327 10 15.905s1.279 3.81 2.857 3.81a2.857 2.857 0 1 0 0-5.715z" style="fill:#4788c7"/><path d="M20 26.5a2.464 2.464 0 0 1-1.642-.63l-.091-.08-.116-.03A7.486 7.486 0 0 1 12.5 18.5V9.202a3.316 3.316 0 0 1 3.312-3.313h8.375A3.317 3.317 0 0 1 27.5 9.202V18.5a7.486 7.486 0 0 1-5.651 7.26l-.116.03-.091.08c-.47.412-1.038.63-1.642.63z" style="fill:#fff"/><path d="M24.187 6.389A2.816 2.816 0 0 1 27 9.202V18.5a6.988 6.988 0 0 1-5.275 6.776l-.233.059-.181.159c-.263.231-.703.506-1.311.506s-1.048-.275-1.311-.506l-.181-.159-.233-.059A6.988 6.988 0 0 1 13 18.5V9.202a2.816 2.816 0 0 1 2.813-2.813h8.374m0-1h-8.375A3.813 3.813 0 0 0 12 9.202V18.5c0 3.737 2.566 6.866 6.029 7.745.528.464 1.213.755 1.971.755s1.443-.291 1.971-.755C25.434 25.366 28 22.237 28 18.5V9.202a3.813 3.813 0 0 0-3.813-3.813z" style="fill:#4788c7"/><path d="M27.5 17.5V14c0-3.636-3.033-5.582-3.163-5.663l-.398-.25-.275.383c-.085.118-2.119 2.887-6.514 2.887-1.15 0-4.65 0-4.65 3.643v2.5h-.179c-.436-.982-1.821-4.332-1.821-7.188 0-5.271 3.617-8.812 9-8.812 3.839 0 4.992 2.585 5.039 2.695l.131.303.33.002c1.671 0 4.5 1.162 4.5 5.515 0 2.623-1.407 6.393-1.838 7.485H27.5z" style="fill:#b6dcfe"/><path d="M19.5 2c3.483 0 4.538 2.297 4.577 2.385l.257.615H25c1.845 0 4 1.313 4 5.015 0 1.536-.507 3.498-1 5.043V14c0-3.909-3.258-5.999-3.397-6.087l-.801-.503-.547.772c-.019.027-1.941 2.674-6.105 2.674C13.733 10.857 12 12.251 12 15v.314c-.491-1.422-1-3.305-1-5.003C11 5.34 14.416 2 19.5 2m0-1C13.681 1 10 4.981 10 10.311 10 13.842 12 18 12 18h1v-3c0-2.668 2.024-3.143 4.15-3.143 4.73 0 6.922-3.097 6.922-3.097S27 10.599 27 14v4h1s2-4.768 2-7.985C30 5.498 27.123 4 25 4c0 0-1.253-3-5.5-3z" style="fill:#4788c7"/></svg>