<svg xmlns="http://www.w3.org/2000/svg" xml:space="preserve" width="800" height="800" viewBox="0 0 186.965 186.966"><path d="M178.106 69.208c-.832-1.254-2.632-1.802-4.065-1.421-2.534-9.255-15.59-19.51-20.687-24.465-14.272-13.882-30.021-26.905-46.917-37.482C67.382-18.61 34.875 40.492 6.303 58.297c-2.39 1.49-1.759 4.118.005 5.239.044.609.09 1.217.139 1.825.002.152.004.299.035.453 2.855 36.991-7.745 77.139 1.934 112.962.789 2.919 4.482 3.357 6.398 1.787.216.11.408.246.672.303 25.214 5.52 51.129 5.77 76.829 5.617 25.845-.153 53.044 1.611 78.709-.789 2.039-.19 3.389-1.928 3.617-3.675.322.331.61.698.961 1.001.807.696 2.196.497 2.478-.654 1.933-7.92-.748-16.642-1.016-24.801-.356-10.892.769-21.888 1.765-32.719 1.403-15.286 8.412-41.866-.723-55.638zm-12.914 1.309c-.758.178-1.518.439-2.277.748-1.096-.827-2.179-1.649-3.133-2.5-3.346-2.979-6.547-6.114-9.897-9.085-.896-.794-1.934-.612-2.594-.013-.419-3.49-.841-6.99-1.341-10.481 6.649 6.866 13.001 14.045 19.242 21.331zm-7.011 3.358c-3.148 2.126-6.09 4.787-8.397 6.937-.011-5.263-1.218-10.884-1.832-15.73-.09-.7-.172-1.41-.258-2.113 2.816 3.14 5.76 6.158 8.76 9.124a92.372 92.372 0 0 1 1.727 1.782zm-17.872-8.793c.393 7.152-.115 15.387 2.102 22.178.05.151.142.262.206.399-11.112 11.106-21.123 23.412-33.155 33.524-1.676-.213-2.994 1.11-3.256 2.651-.35.272-.676.569-1.027.838-17.309 13.153-38.197-7.924-51.118-18.954-2.409-2.058-4.728-4.196-7.067-6.317-.232-15.187-7.845-56.644 9.086-58.711 28.234-3.446 55.005.075 82.986 3.045.184 7.118.855 14.262 1.243 21.347zm-38.296-51.673c10.032 5.954 19.199 12.841 27.783 20.349-4.586-.827-9.227-1.414-13.877-1.906-11.797-7.654-24.382-13.691-35.902-21.774 7.122-1.816 14.438-1.154 21.996 3.331zm-26.212-1.97c7.788 7.076 16.523 13.59 25.582 19.302a321.631 321.631 0 0 0-12.111-.351c-3.135-2.226-7.132-3.95-10.06-5.98-3.986-2.764-7.782-5.81-11.599-8.815 2.703-1.672 5.431-3.081 8.188-4.156zm-10.765 5.83c4.329 3.865 8.715 7.657 13.219 11.321.628.511 1.283 1.067 1.951 1.631-2.756-.071-5.791-.144-8.943-.131-1.627-.789-3.587-1.315-4.82-1.914-3.053-1.484-6.039-3.244-8.657-5.425a97.153 97.153 0 0 1 7.25-5.482zm-9.711 7.567c2.289 2.151 4.872 3.949 7.568 5.558-6.259.474-12.125 1.604-15.873 4.123-7.314 4.915-9.667 14.814-9.82 25.82a30.84 30.84 0 0 1-2.125-1.567c-2.234-1.8-4.376-3.838-6.136-6.109-1.343-1.733-4.103.498-2.993 2.309 1.805 2.945 4.285 5.409 6.882 7.66 1.167 1.012 2.762 2.593 4.454 3.121.126 2.882.364 5.794.675 8.675-3.81-1.17-7.714-4.538-10.465-6.689-3.423-2.675-6.611-5.641-9.763-8.639 12.237-8.461 24.659-23.03 37.596-34.262zM12.987 64.983c-.182-.876-.358-1.753-.546-2.628a49.207 49.207 0 0 0 3.014-1.766c4.123 4.25 8.331 8.428 12.854 12.249 2.726 2.303 6.329 5.448 10.116 5.543.708 5.477 1.595 10.723 2.338 15.264-9.642-9.168-18.81-18.788-27.776-28.662zm2.377 103.587c-1.41-29.791 3.095-60.586-.241-90.151 8.915 11.116 19.762 21.182 29.87 30.607 6.602 6.156 14.313 13.269 22.712 19.002-9.284 2.277-18.301 11.26-25.393 17.109-9.141 7.539-18.137 15.435-26.948 23.433zm82.848 8.869c-26.895.479-53.565-.389-80.343-2.797 7.667-5.447 14.885-11.669 22.239-17.436 10.234-8.023 21.28-14.86 31.567-22.613 1.103-.831 1.592-1.932 1.669-3.012 5.931 3.417 12.14 5.956 18.508 6.833 7.384 1.018 14.48-2.717 20.823-7.744 9.319 6.729 18.374 13.835 27.289 21.078 5.855 4.76 24.377 16.494 25.018 24.598.028.342.106.66.212.962-21.744-2.98-45.359-.253-66.982.131zm71.257-47.841c-.83 9.172-3.194 24.646-1.303 37.229-10.222-13.02-36.908-31.855-50.279-40.667 3.588-3.356 6.847-6.836 9.654-9.66 9.761-9.813 23.523-31.007 38.256-36.495.129.053.253.124.383.17 1.028.363 2.039-.202 2.585-1.05.751-.165 1.503-.337 2.257-.408.241-.022.465-.099.693-.164.202 4.812.825 9.664.728 14.488-.245 12.207-1.874 24.411-2.974 36.557z"/><path d="M118.512 74.562c-11.261-3.901-28.224-.445-40.035-.257-1.973.031-27.092-1.126-24.147 4.419 3.006 5.662 24.378 2.802 29.697 2.887 10.269.163 24.68 3.051 34.485-.346 3.307-1.146 3.307-5.557 0-6.703zM88.748 57.537c-2.549-3.214-8.247-2.276-11.837-2.302-6.492-.049-13.339-.368-19.789.399-3.336.396-3.335 4.791 0 5.187 5.556.661 11.282.374 16.874.74 4.428.291 9.066 1.608 13.443.93 2.456-.38 2.517-3.431 1.309-4.954z"/></svg>